<svg width="49" height="74" viewBox="0 0 49 74" fill="none" xmlns="http://www.w3.org/2000/svg">
<path d="M29.2625 5.20495L32.3578 9.39162L31.1658 15.4464C30.9953 16.3123 30.0515 16.7084 29.3247 16.2178C27.4223 14.9337 24.6346 13.3125 22.4029 14.8103C19.4671 16.7808 18.7608 18.2586 19.9749 21.4606C21.0698 24.3484 20.5312 27.662 20.415 28.2844C20.402 28.3542 20.3815 28.4204 20.3568 28.4869C19.7422 30.1411 19.6518 32.8829 22.8885 35.0074C25.997 37.0478 27.7619 38.9125 33.2244 37.0695C33.8349 36.8635 34.5128 37.1155 34.8112 37.6916C37.8592 43.5752 43.1649 53.5407 42.7984 53.7266C42.4271 53.9149 36.6564 56.7852 33.1786 58.1858C32.8777 58.307 32.5422 58.3006 32.2446 58.1712C28.7969 56.6728 27.3125 55.5744 22.6053 57.9138C21.8198 58.3042 17.5526 60.5345 17.5526 65.7069C17.5526 65.7069 16.018 63.6402 14.7039 61.5701C13.0977 59.0399 11.821 56.5047 14.0789 57.7328C18.1842 59.9655 20.9664 57.2281 22.1197 56.6823C24.6771 55.4717 26.5645 52.6133 26.0789 50.3965C25.8576 49.4984 26.4151 45.5307 26.5154 44.3729C26.5299 44.2057 26.5663 44.0415 26.6186 43.8823C27.5761 40.9688 24.5103 37.4178 21.6745 35.5C18.9032 33.6258 18.8809 33.6969 13.6622 34.3442C13.1529 34.4073 12.6521 34.1566 12.4182 33.6953C9.44712 27.8356 6.39197 16.5862 13.1316 16.5862C20.1729 16.5862 20.6945 15.2902 23.1313 13.5788C26.2878 11.3621 25.7632 9.52463 25.7632 8.2931C25.7632 7.64126 27.1131 5.94923 28.0123 5.04612C28.399 4.65781 28.9362 4.76366 29.2625 5.20495Z" fill="#4283F1"/>
<path d="M34.2895 0C38.9984 1.03953e-07 42.8158 3.85576 42.8158 8.61207V9.25C42.8158 14.0063 38.9984 17.8621 34.2895 17.8621C29.5805 17.8621 25.7632 14.0063 25.7632 9.25V8.61207C25.7632 3.85575 29.5805 -1.03953e-07 34.2895 0Z" fill="#4283F1"/>
<path d="M12.1842 16.5862C16.8932 16.5862 20.7105 20.442 20.7105 25.1983V25.8362C20.7105 30.5925 16.8932 34.4483 12.1842 34.4483C7.47526 34.4483 3.65789 30.5925 3.65789 25.8362V25.1983C3.65789 20.442 7.47526 16.5862 12.1842 16.5862Z" fill="#4283F1"/>
<path d="M37.1316 36.3621C43.4102 36.3621 48.5 41.5031 48.5 47.8448C48.5 54.1866 43.4102 59.3276 37.1316 59.3276C30.853 59.3276 25.7632 54.1866 25.7632 47.8448C25.7632 41.5031 30.853 36.3621 37.1316 36.3621Z" fill="#4283F1"/>
<path d="M9.02632 56.1379C13.7353 56.1379 17.5526 59.9937 17.5526 64.75V65.3879C17.5526 70.1442 13.7353 74 9.02632 74C4.31736 74 0.5 70.1442 0.5 65.3879L0.5 64.75C0.5 59.9937 4.31736 56.1379 9.02632 56.1379Z" fill="#4283F1"/>
</svg>
